# xmcd
#
# Track frame offsets:
#	150
#	9990
#	21175
#	31990
#	42680
#	54135
#	62475
#	74672
#	83490
#	94000
#	105842
#	116415
#	126270
#	137832
#	150527
#	160417
#	170872
#	184222
#	194417
#	203862
#	218097
#	230840
#
# Disc length: 3221 seconds
#
# Revision: 1
# Processed by: cddbd v1.5PL3 Copyright (c) Steve Scherf et al.
# Submitted via: audiograbber 1.82.02
#
DISCID=310c9316
DTITLE=Various Artist - Best Of Robin Hood Records
DYEAR=1900
DGENRE=Doo Wop
TTITLE0=Harptones - Until The Real Thing Comes Along
TTITLE1=Nobles - Oh Baby
TTITLE2=Impressions - A Long Time Ago
TTITLE3=Blue Dots - My Confession
TTITLE4=Vibrations - Time After Time
TTITLE5=Devotions - Who Can She Be
TTITLE6=Spandells - Be My Love
TTITLE7=Sheppards - The Love I Found In You
TTITLE8=Dino and The Gee-Chords - Baby Can I Take You Home
TTITLE9=Clyde McPhatter and The Drifters - Three Thirty Three
TTITLE10=Vibrations - People Say
TTITLE11=Impressions - Young Lover
TTITLE12=Moonglows - I'm Only Trying
TTITLE13=Sheppards - I Need You So
TTITLE14=Five Discs - My Foolish Heart
TTITLE15=Vibrations - Sweet Slumber
TTITLE16=Metronomes - Love You As You Love Me(incomp)
TTITLE17=Impressions - Lover's Lane
TTITLE18=Vibrations - So Little Time
TTITLE19=Paragons - Florence, Don't Leave Me
TTITLE20=Scarlets - Teardrops Fell
TTITLE21=Vireos - First Kiss(alt take)
EXTD=
EXTT0=
EXTT1=
EXTT2=
EXTT3=
EXTT4=
EXTT5=
EXTT6=
EXTT7=
EXTT8=
EXTT9=
EXTT10=
EXTT11=
EXTT12=
EXTT13=
EXTT14=
EXTT15=
EXTT16=
EXTT17=
EXTT18=
EXTT19=
EXTT20=
EXTT21=
PLAYORDER=
